<?xml version="1.0" encoding="utf-8"?>
<!-- Generator: Adobe Illustrator 24.3.0, SVG Export Plug-In . SVG Version: 6.00 Build 0)  -->
<svg version="1.1" id="Calque_1" xmlns="http://www.w3.org/2000/svg" xmlns:xlink="http://www.w3.org/1999/xlink" x="0px" y="0px"
	 viewBox="0 0 1000 220" style="enable-background:new 0 0 1000 220;" xml:space="preserve">
<style type="text/css">
	.st0{fill:#231B30;}
	.st1{fill:#7DACFF;}
	.st2{fill:#FF4863;}
	.st3{fill:#300A66;}
</style>
<g id="Calque_2_1_">
</g>
<g>
	<path class="st0" d="M266.7,67.6v85c0,11.8-2.7,21.3-8.1,28.7c-5.4,7.3-13.4,12.7-24,16.1l-12.7-24.9c4.4-1.9,8.1-4.5,11.1-7.8
		s4.5-7.4,4.5-12.4v-61h-14.1V67.6H266.7z"/>
	<path class="st0" d="M329.9,70.3c4.3,2.5,7.5,6,9.6,10.5V67.6h29.2v83.5h-29.2v-13.2c-2.1,4.5-5.3,8-9.6,10.5
		c-4.3,2.5-9.4,3.8-15.2,3.8c-6.6,0-12.6-1.7-18-5.1c-5.4-3.4-9.6-8.4-12.6-14.9c-3.1-6.5-4.6-14.1-4.6-22.8s1.5-16.3,4.6-22.8
		c3.1-6.4,7.3-11.4,12.6-14.8c5.4-3.4,11.4-5.1,18-5.1C320.5,66.5,325.5,67.8,329.9,70.3z M313.2,96.7c-2.8,3-4.2,7.2-4.2,12.6
		c0,5.5,1.4,9.7,4.2,12.7c2.8,3,6.5,4.5,11.1,4.5c4.4,0,8-1.5,10.9-4.6s4.3-7.3,4.3-12.6c0-5.3-1.4-9.4-4.3-12.5s-6.5-4.6-10.9-4.6
		C319.7,92.1,316,93.7,313.2,96.7z"/>
	<path class="st0" d="M519.1,76.4c5.9,6.4,8.9,15.1,8.9,26.2v48.5h-29.2v-44.8c0-4.5-1.2-7.9-3.7-10.4s-5.8-3.7-10-3.7
		c-4.4,0-7.8,1.3-10.3,3.8s-3.8,6.1-3.8,10.8v44.3h-29.2v-44.8c0-4.5-1.2-7.9-3.7-10.4s-5.8-3.7-10-3.7c-4.4,0-7.8,1.3-10.3,3.8
		s-3.8,6.1-3.8,10.8v44.3h-29.3V67.6H414v12.8c2.4-4.2,5.7-7.5,10-9.9s9.3-3.6,15-3.6c6.2,0,11.8,1.4,16.5,4.2
		c4.8,2.8,8.5,6.7,11.2,11.9c2.9-4.9,6.7-8.8,11.6-11.7c4.9-2.9,10.3-4.4,16.2-4.4C505,66.8,513.2,70,519.1,76.4z"/>
	<path class="st0" d="M601.5,74.6c6.5,5.4,10.7,12.5,12.4,21.3h-27.4c-0.7-3-2.1-5.2-4.2-6.7c-2.1-1.5-4.7-2.2-7.8-2.2
		c-2.2,0-3.8,0.5-5,1.4c-1.1,0.9-1.7,2.3-1.7,3.9c0,2.1,1.2,3.6,3.6,4.7c2.4,1,6.4,2.2,12,3.5c6.4,1.4,11.8,2.9,16,4.5
		s7.9,4.2,11,7.7c3.1,3.6,4.7,8.4,4.7,14.4c0,4.9-1.3,9.2-4,12.9c-2.7,3.8-6.6,6.7-11.7,8.9c-5.1,2.1-11.1,3.2-18.1,3.2
		c-11.7,0-21-2.5-28-7.6c-6.9-5.1-11.2-12.3-12.6-21.7h28.1c0.4,3.1,1.7,5.4,3.9,6.8c2.2,1.5,5,2.2,8.4,2.2c2.3,0,4-0.5,5.2-1.5
		s1.8-2.3,1.8-3.9c0-2.4-1.3-4.1-3.8-5.2s-6.6-2.2-12.1-3.3c-6.3-1.3-11.6-2.7-15.6-4.2c-4.1-1.5-7.6-4-10.6-7.4s-4.5-8.2-4.5-14.2
		c0-7.5,2.9-13.7,8.8-18.5c5.9-4.8,14.2-7.1,25-7.1C586.2,66.5,594.9,69.2,601.5,74.6z"/>
	<path class="st0" d="M733.2,70.3c4.3,2.5,7.5,6,9.6,10.5V67.6H772v83.5h-29.2v-13.2c-2.1,4.5-5.3,8-9.6,10.5s-9.4,3.8-15.2,3.8
		c-6.6,0-12.6-1.7-18-5.1c-5.4-3.4-9.6-8.4-12.6-14.9c-3.1-6.5-4.6-14.1-4.6-22.8s1.5-16.3,4.6-22.8c3.1-6.4,7.3-11.4,12.6-14.8
		c5.4-3.4,11.4-5.1,18-5.1C723.8,66.5,728.9,67.8,733.2,70.3z M716.5,96.7c-2.8,3-4.2,7.2-4.2,12.6c0,5.5,1.4,9.7,4.2,12.7
		s6.5,4.5,11.1,4.5c4.4,0,8-1.5,10.9-4.6s4.3-7.3,4.3-12.6c0-5.3-1.4-9.4-4.3-12.5c-2.9-3.1-6.5-4.6-10.9-4.6
		C723.1,92.1,719.4,93.7,716.5,96.7z"/>
	<path class="st0" d="M884.2,67.6v83.5h-29.3V67.6H884.2z"/>
	<path class="st0" d="M965.9,75.5c7.3,6,11.9,14.3,13.8,24.9h-30.9c-0.7-2.9-2-5.1-3.8-6.6s-4.2-2.3-7.1-2.3c-3.6,0-6.5,1.5-8.7,4.5
		s-3.3,7.4-3.3,13.2c0,5.9,1.1,10.3,3.3,13.2c2.2,3,5.1,4.5,8.7,4.5c2.9,0,5.2-0.8,7.1-2.3c1.8-1.5,3.1-3.7,3.8-6.6h30.9
		c-1.9,10.6-6.5,18.9-13.8,25c-7.3,6-16.4,9.1-27.2,9.1c-8.3,0-15.7-1.7-22.1-5.1c-6.4-3.4-11.4-8.4-15-14.9s-5.4-14.1-5.4-22.8
		s1.8-16.3,5.4-22.8c3.6-6.4,8.6-11.4,15-14.8s13.8-5.1,22-5.1C949.5,66.5,958.5,69.5,965.9,75.5z"/>
	<path class="st0" d="M673.6,126.1v25h-12.1c-10.2,0-18.2-2.5-24-7.6s-8.6-13.4-8.6-25.1V92V67.6V47.4h29.3v20.2h15V92h-15v26.9
		c0,2.6,0.6,4.4,1.7,5.5c1.1,1.1,3.1,1.6,5.7,1.6L673.6,126.1L673.6,126.1z"/>
	<path class="st1" d="M248.3,58h18.3V39.8c0-5-1.8-8.7-5.5-12c-3.7-3.4-7.9-5.1-12.8-5.1c-3.3,0-6.3,0.8-9.1,2.4s-5,3.7-6.7,6.4
		s-2.5,5.6-2.5,8.9c0,3.2,0.8,6.1,2.5,8.8s3.9,4.9,6.7,6.4C242.1,57.2,245.1,58,248.3,58z"/>
	<path class="st2" d="M873.2,58h-18.3V39.8c0-5,1.8-8.7,5.5-12c3.7-3.4,7.9-5.1,12.8-5.1c3.3,0,6.3,0.8,9.1,2.4s5,3.7,6.7,6.4
		s2.5,5.6,2.5,8.9c0,3.2-0.8,6.1-2.5,8.8s-3.9,4.9-6.7,6.4C879.5,57.2,876.5,58,873.2,58z"/>
	<path class="st0" d="M838.1,126.1v25H826c-10.2,0-18.2-2.5-24-7.6s-8.6-13.4-8.6-25.1V92V67.6V47.4h29.3v20.2h15V92h-15v26.9
		c0,2.6,0.6,4.4,1.7,5.5c1.1,1.1,3.1,1.6,5.7,1.6L838.1,126.1L838.1,126.1z"/>
	<g>
		<path class="st1" d="M128.4,141.5v-7.2c0,0-30.4,0-55.6,0c-24.2-0.3-35.2-14.5-43-24.4c-6.3,9.4-9.5,19.9-9.5,31.5
			c0,10.1,2.4,19.3,7.3,27.8c4.8,8.5,11.3,15.3,19.5,20.5s17.2,7.8,27.3,7.8c9.7,0,18.7-2.6,27-7.8s14.9-12,19.8-20.5
			C126,160.7,128.4,151.5,128.4,141.5z"/>
		<path class="st2" d="M128.4,78.4v7.2c0,0-30.4,0-55.6,0c-24.2,0.3-35.2,14.6-43,24.5c-6.3-9.4-9.5-20-9.5-31.6
			c0-10.1,2.4-19.3,7.3-27.8c4.8-8.5,11.3-15.3,19.5-20.5s17.2-7.8,27.3-7.8c9.7,0,18.7,2.6,27,7.8s14.9,12,19.8,20.5
			C126,59.2,128.4,68.4,128.4,78.4z"/>
		<path class="st3" d="M29.7,110c1.8,2.7,3.9,5.2,6.2,7.8c10.4,11.3,21.7,16.9,36.9,16.9h55.6V85.3H72.8c-15.2,0-26.5,5.6-36.9,16.9
			C33.6,104.8,31.5,107.3,29.7,110z"/>
	</g>
</g>
</svg>
