<svg enable-background="new 0 0 1000 220" viewBox="0 0 1000 220" xmlns="http://www.w3.org/2000/svg"><path d="m-13.2-13.4h1026.3v246.7h-1026.3z" fill="#300a66"/><g fill="#fff"><path d="m266.7 67.6v85c0 11.8-2.7 21.3-8.1 28.7-5.4 7.3-13.4 12.7-24 16.1l-12.7-24.9c4.4-1.9 8.1-4.5 11.1-7.8s4.5-7.4 4.5-12.4v-61h-14.1v-23.7z"/><path d="m329.9 70.3c4.3 2.5 7.5 6 9.6 10.5v-13.2h29.2v83.5h-29.2v-13.2c-2.1 4.5-5.3 8-9.6 10.5s-9.4 3.8-15.2 3.8c-6.6 0-12.6-1.7-18-5.1s-9.6-8.4-12.6-14.9c-3.1-6.5-4.6-14.1-4.6-22.8s1.5-16.3 4.6-22.8c3.1-6.4 7.3-11.4 12.6-14.8 5.4-3.4 11.4-5.1 18-5.1 5.8-.2 10.8 1.1 15.2 3.6zm-16.7 26.4c-2.8 3-4.2 7.2-4.2 12.6 0 5.5 1.4 9.7 4.2 12.7s6.5 4.5 11.1 4.5c4.4 0 8-1.5 10.9-4.6s4.3-7.3 4.3-12.6-1.4-9.4-4.3-12.5-6.5-4.6-10.9-4.6c-4.6-.1-8.3 1.5-11.1 4.5z"/><path d="m519.1 76.4c5.9 6.4 8.9 15.1 8.9 26.2v48.5h-29.2v-44.8c0-4.5-1.2-7.9-3.7-10.4s-5.8-3.7-10-3.7c-4.4 0-7.8 1.3-10.3 3.8s-3.8 6.1-3.8 10.8v44.3h-29.2v-44.8c0-4.5-1.2-7.9-3.7-10.4s-5.8-3.7-10-3.7c-4.4 0-7.8 1.3-10.3 3.8s-3.8 6.1-3.8 10.8v44.3h-29.3v-83.5h29.3v12.8c2.4-4.2 5.7-7.5 10-9.9s9.3-3.6 15-3.6c6.2 0 11.8 1.4 16.5 4.2 4.8 2.8 8.5 6.7 11.2 11.9 2.9-4.9 6.7-8.8 11.6-11.7s10.3-4.4 16.2-4.4c10.5-.1 18.7 3.1 24.6 9.5z"/><path d="m601.5 74.6c6.5 5.4 10.7 12.5 12.4 21.3h-27.4c-.7-3-2.1-5.2-4.2-6.7s-4.7-2.2-7.8-2.2c-2.2 0-3.8.5-5 1.4-1.1.9-1.7 2.3-1.7 3.9 0 2.1 1.2 3.6 3.6 4.7 2.4 1 6.4 2.2 12 3.5 6.4 1.4 11.8 2.9 16 4.5s7.9 4.2 11 7.7c3.1 3.6 4.7 8.4 4.7 14.4 0 4.9-1.3 9.2-4 12.9-2.7 3.8-6.6 6.7-11.7 8.9-5.1 2.1-11.1 3.2-18.1 3.2-11.7 0-21-2.5-28-7.6-6.9-5.1-11.2-12.3-12.6-21.7h28.1c.4 3.1 1.7 5.4 3.9 6.8 2.2 1.5 5 2.2 8.4 2.2 2.3 0 4-.5 5.2-1.5s1.8-2.3 1.8-3.9c0-2.4-1.3-4.1-3.8-5.2s-6.6-2.2-12.1-3.3c-6.3-1.3-11.6-2.7-15.6-4.2-4.1-1.5-7.6-4-10.6-7.4s-4.5-8.2-4.5-14.2c0-7.5 2.9-13.7 8.8-18.5s14.2-7.1 25-7.1c10.9 0 19.6 2.7 26.2 8.1z"/><path d="m733.2 70.3c4.3 2.5 7.5 6 9.6 10.5v-13.2h29.2v83.5h-29.2v-13.2c-2.1 4.5-5.3 8-9.6 10.5s-9.4 3.8-15.2 3.8c-6.6 0-12.6-1.7-18-5.1s-9.6-8.4-12.6-14.9c-3.1-6.5-4.6-14.1-4.6-22.8s1.5-16.3 4.6-22.8c3.1-6.4 7.3-11.4 12.6-14.8 5.4-3.4 11.4-5.1 18-5.1 5.8-.2 10.9 1.1 15.2 3.6zm-16.7 26.4c-2.8 3-4.2 7.2-4.2 12.6 0 5.5 1.4 9.7 4.2 12.7s6.5 4.5 11.1 4.5c4.4 0 8-1.5 10.9-4.6s4.3-7.3 4.3-12.6-1.4-9.4-4.3-12.5-6.5-4.6-10.9-4.6c-4.5-.1-8.2 1.5-11.1 4.5z"/><path d="m884.2 67.6v83.5h-29.3v-83.5z"/><path d="m965.9 75.5c7.3 6 11.9 14.3 13.8 24.9h-30.9c-.7-2.9-2-5.1-3.8-6.6s-4.2-2.3-7.1-2.3c-3.6 0-6.5 1.5-8.7 4.5s-3.3 7.4-3.3 13.2c0 5.9 1.1 10.3 3.3 13.2 2.2 3 5.1 4.5 8.7 4.5 2.9 0 5.2-.8 7.1-2.3 1.8-1.5 3.1-3.7 3.8-6.6h30.9c-1.9 10.6-6.5 18.9-13.8 25-7.3 6-16.4 9.1-27.2 9.1-8.3 0-15.7-1.7-22.1-5.1s-11.4-8.4-15-14.9-5.4-14.1-5.4-22.8 1.8-16.3 5.4-22.8c3.6-6.4 8.6-11.4 15-14.8s13.8-5.1 22-5.1c10.9-.1 19.9 2.9 27.3 8.9z"/><path d="m673.6 126.1v25h-12.1c-10.2 0-18.2-2.5-24-7.6s-8.6-13.4-8.6-25.1v-26.4-24.4-20.2h29.3v20.2h15v24.4h-15v26.9c0 2.6.6 4.4 1.7 5.5s3.1 1.6 5.7 1.6z"/></g><path d="m248.3 58h18.3v-18.2c0-5-1.8-8.7-5.5-12-3.7-3.4-7.9-5.1-12.8-5.1-3.3 0-6.3.8-9.1 2.4s-5 3.7-6.7 6.4-2.5 5.6-2.5 8.9c0 3.2.8 6.1 2.5 8.8s3.9 4.9 6.7 6.4c2.9 1.6 5.9 2.4 9.1 2.4z" fill="#7dacff"/><path d="m873.2 58h-18.3v-18.2c0-5 1.8-8.7 5.5-12 3.7-3.4 7.9-5.1 12.8-5.1 3.3 0 6.3.8 9.1 2.4s5 3.7 6.7 6.4 2.5 5.6 2.5 8.9c0 3.2-.8 6.1-2.5 8.8s-3.9 4.9-6.7 6.4c-2.8 1.6-5.8 2.4-9.1 2.4z" fill="#ff4863"/><path d="m838.1 126.1v25h-12.1c-10.2 0-18.2-2.5-24-7.6s-8.6-13.4-8.6-25.1v-26.4-24.4-20.2h29.3v20.2h15v24.4h-15v26.9c0 2.6.6 4.4 1.7 5.5s3.1 1.6 5.7 1.6z" fill="#fff"/><path d="m128.4 141.5v-7.2s-30.4 0-55.6 0c-24.2-.3-35.2-14.5-43-24.4-6.3 9.4-9.5 19.9-9.5 31.5 0 10.1 2.4 19.3 7.3 27.8 4.8 8.5 11.3 15.3 19.5 20.5s17.2 7.8 27.3 7.8c9.7 0 18.7-2.6 27-7.8s14.9-12 19.8-20.5c4.8-8.5 7.2-17.7 7.2-27.7z" fill="#7dacff"/><path d="m128.4 78.4v7.2s-30.4 0-55.6 0c-24.2.3-35.2 14.6-43 24.5-6.3-9.4-9.5-20-9.5-31.6 0-10.1 2.4-19.3 7.3-27.8 4.8-8.5 11.3-15.3 19.5-20.5s17.2-7.8 27.3-7.8c9.7 0 18.7 2.6 27 7.8s14.9 12 19.8 20.5c4.8 8.5 7.2 17.7 7.2 27.7z" fill="#ff4863"/><path d="m29.7 110c1.8 2.7 3.9 5.2 6.2 7.8 10.4 11.3 21.7 16.9 36.9 16.9h55.6v-49.4h-55.6c-15.2 0-26.5 5.6-36.9 16.9-2.3 2.6-4.4 5.1-6.2 7.8z" fill="#fff"/></svg>