<?xml version="1.0" encoding="utf-8"?>
<!-- Generator: Adobe Illustrator 24.3.0, SVG Export Plug-In . SVG Version: 6.00 Build 0)  -->
<svg version="1.1" id="Calque_1" xmlns="http://www.w3.org/2000/svg" xmlns:xlink="http://www.w3.org/1999/xlink" x="0px" y="0px"
	 viewBox="0 0 1000 1000" style="enable-background:new 0 0 1000 1000;" xml:space="preserve">
<style type="text/css">
	.st0{fill:#7DACFF;}
	.st1{fill:#FF4863;}
	.st2{fill:#300A66;}
</style>
<g>
	<path class="st0" d="M734.5,636.9v-31.2c0,0-131.8,0-241.2,0c-104.8-1.3-152.6-63.1-186.6-106.1c-27.3,40.7-41.2,86.6-41.2,136.9
		c0,43.8,10.4,83.8,31.7,120.7c20.8,36.9,49,66.4,84.6,89c35.6,22.6,74.6,33.9,118.4,33.9c42.1,0,81.1-11.3,117.1-33.9
		c36-22.6,64.6-52.1,85.9-89C724.1,720.3,734.5,680.3,734.5,636.9z"/>
	<path class="st1" d="M734.5,363.1v31.2c0,0-131.8,0-241.2,0c-104.8,1.3-152.7,63.4-186.7,106.4c-27.3-40.7-41.1-86.9-41.1-137.2
		c0-43.8,10.4-83.8,31.7-120.7c20.8-36.9,49-66.4,84.6-89c35.6-22.6,74.6-33.9,118.4-33.9c42.1,0,81.1,11.3,117.1,33.9
		c36,22.6,64.6,52.1,85.9,89C724.1,279.7,734.5,319.7,734.5,363.1z"/>
	<path class="st2" d="M306.3,500.2c7.8,11.7,16.9,22.6,26.9,33.9c45.1,49,94.1,73.4,160.1,73.4h241.2V393H493.3
		c-65.9,0-115,24.3-160.1,73.4C323.2,477.6,314.1,488.5,306.3,500.2z"/>
</g>
</svg>
